<mxfile host="app.diagrams.net" agent="Mozilla/5.0 (Windows NT 10.0; Win64; x64) AppleWebKit/537.36 (KHTML, like Gecko) Chrome/131.0.0.0 Safari/537.36" version="25.0.3">
  <diagram name="Page-1" id="gY-1sRmPOiLGeIWF1rak">
    <mxGraphModel dx="543" dy="360" grid="1" gridSize="10" guides="1" tooltips="1" connect="1" arrows="1" fold="1" page="1" pageScale="1" pageWidth="850" pageHeight="1100" math="0" shadow="0">
      <root>
        <mxCell id="0" />
        <mxCell id="1" parent="0" />
        <mxCell id="LiXAKCymoHaXU6aBzqmE-2" value="" style="rounded=0;whiteSpace=wrap;html=1;" vertex="1" parent="1">
          <mxGeometry x="335" y="310" width="90" height="40" as="geometry" />
        </mxCell>
        <mxCell id="LiXAKCymoHaXU6aBzqmE-3" value="" style="rounded=0;whiteSpace=wrap;html=1;" vertex="1" parent="1">
          <mxGeometry x="110" y="310" width="90" height="40" as="geometry" />
        </mxCell>
        <mxCell id="LiXAKCymoHaXU6aBzqmE-4" value="" style="ellipse;whiteSpace=wrap;html=1;" vertex="1" parent="1">
          <mxGeometry x="150" y="230" width="75" height="50" as="geometry" />
        </mxCell>
        <mxCell id="LiXAKCymoHaXU6aBzqmE-5" value="" style="ellipse;whiteSpace=wrap;html=1;" vertex="1" parent="1">
          <mxGeometry x="35" y="230" width="75" height="50" as="geometry" />
        </mxCell>
        <mxCell id="LiXAKCymoHaXU6aBzqmE-6" value="" style="ellipse;whiteSpace=wrap;html=1;" vertex="1" parent="1">
          <mxGeometry y="300" width="75" height="50" as="geometry" />
        </mxCell>
        <mxCell id="LiXAKCymoHaXU6aBzqmE-7" value="" style="ellipse;whiteSpace=wrap;html=1;" vertex="1" parent="1">
          <mxGeometry x="350" y="230" width="75" height="50" as="geometry" />
        </mxCell>
        <mxCell id="LiXAKCymoHaXU6aBzqmE-9" value="" style="ellipse;whiteSpace=wrap;html=1;" vertex="1" parent="1">
          <mxGeometry x="388" y="400" width="75" height="50" as="geometry" />
        </mxCell>
        <mxCell id="LiXAKCymoHaXU6aBzqmE-10" value="TrackingRecord" style="rounded=0;whiteSpace=wrap;html=1;" vertex="1" parent="1">
          <mxGeometry x="530" y="310" width="90" height="40" as="geometry" />
        </mxCell>
        <mxCell id="LiXAKCymoHaXU6aBzqmE-39" style="edgeStyle=orthogonalEdgeStyle;rounded=0;orthogonalLoop=1;jettySize=auto;html=1;exitX=0.5;exitY=1;exitDx=0;exitDy=0;entryX=1;entryY=0.25;entryDx=0;entryDy=0;" edge="1" parent="1" source="LiXAKCymoHaXU6aBzqmE-11" target="LiXAKCymoHaXU6aBzqmE-10">
          <mxGeometry relative="1" as="geometry" />
        </mxCell>
        <mxCell id="LiXAKCymoHaXU6aBzqmE-11" value="VanID" style="ellipse;whiteSpace=wrap;html=1;" vertex="1" parent="1">
          <mxGeometry x="630" y="230" width="75" height="50" as="geometry" />
        </mxCell>
        <mxCell id="LiXAKCymoHaXU6aBzqmE-40" style="edgeStyle=orthogonalEdgeStyle;rounded=0;orthogonalLoop=1;jettySize=auto;html=1;exitX=0.5;exitY=1;exitDx=0;exitDy=0;entryX=0.5;entryY=0;entryDx=0;entryDy=0;" edge="1" parent="1" source="LiXAKCymoHaXU6aBzqmE-12" target="LiXAKCymoHaXU6aBzqmE-10">
          <mxGeometry relative="1" as="geometry" />
        </mxCell>
        <mxCell id="LiXAKCymoHaXU6aBzqmE-12" value="&lt;u&gt;RecordID&lt;/u&gt;" style="ellipse;whiteSpace=wrap;html=1;" vertex="1" parent="1">
          <mxGeometry x="520" y="230" width="75" height="50" as="geometry" />
        </mxCell>
        <mxCell id="LiXAKCymoHaXU6aBzqmE-38" style="edgeStyle=orthogonalEdgeStyle;rounded=0;orthogonalLoop=1;jettySize=auto;html=1;exitX=0;exitY=0.5;exitDx=0;exitDy=0;entryX=1;entryY=0.5;entryDx=0;entryDy=0;" edge="1" parent="1" source="LiXAKCymoHaXU6aBzqmE-13" target="LiXAKCymoHaXU6aBzqmE-10">
          <mxGeometry relative="1" as="geometry" />
        </mxCell>
        <mxCell id="LiXAKCymoHaXU6aBzqmE-13" value="Speed" style="ellipse;whiteSpace=wrap;html=1;" vertex="1" parent="1">
          <mxGeometry x="660" y="320" width="75" height="50" as="geometry" />
        </mxCell>
        <mxCell id="LiXAKCymoHaXU6aBzqmE-37" style="edgeStyle=orthogonalEdgeStyle;rounded=0;orthogonalLoop=1;jettySize=auto;html=1;exitX=0;exitY=0;exitDx=0;exitDy=0;entryX=0.5;entryY=1;entryDx=0;entryDy=0;" edge="1" parent="1" source="LiXAKCymoHaXU6aBzqmE-14" target="LiXAKCymoHaXU6aBzqmE-10">
          <mxGeometry relative="1" as="geometry" />
        </mxCell>
        <mxCell id="LiXAKCymoHaXU6aBzqmE-14" value="Location" style="ellipse;whiteSpace=wrap;html=1;" vertex="1" parent="1">
          <mxGeometry x="580" y="380" width="75" height="50" as="geometry" />
        </mxCell>
        <mxCell id="LiXAKCymoHaXU6aBzqmE-15" value="Driver" style="text;html=1;align=center;verticalAlign=middle;whiteSpace=wrap;rounded=0;" vertex="1" parent="1">
          <mxGeometry x="120" y="315" width="60" height="30" as="geometry" />
        </mxCell>
        <mxCell id="LiXAKCymoHaXU6aBzqmE-16" value="&lt;u&gt;DriverId&lt;/u&gt;" style="text;html=1;align=center;verticalAlign=middle;whiteSpace=wrap;rounded=0;" vertex="1" parent="1">
          <mxGeometry x="157.5" y="240" width="60" height="30" as="geometry" />
        </mxCell>
        <mxCell id="LiXAKCymoHaXU6aBzqmE-17" value="Name" style="text;html=1;align=center;verticalAlign=middle;whiteSpace=wrap;rounded=0;" vertex="1" parent="1">
          <mxGeometry x="42.5" y="240" width="57.5" height="30" as="geometry" />
        </mxCell>
        <mxCell id="LiXAKCymoHaXU6aBzqmE-23" style="edgeStyle=orthogonalEdgeStyle;rounded=0;orthogonalLoop=1;jettySize=auto;html=1;exitX=1;exitY=1;exitDx=0;exitDy=0;entryX=0;entryY=0.5;entryDx=0;entryDy=0;" edge="1" parent="1" source="LiXAKCymoHaXU6aBzqmE-18" target="LiXAKCymoHaXU6aBzqmE-3">
          <mxGeometry relative="1" as="geometry" />
        </mxCell>
        <mxCell id="LiXAKCymoHaXU6aBzqmE-18" value="VanID" style="text;html=1;align=center;verticalAlign=middle;whiteSpace=wrap;rounded=0;" vertex="1" parent="1">
          <mxGeometry x="7.5" y="310" width="60" height="30" as="geometry" />
        </mxCell>
        <mxCell id="LiXAKCymoHaXU6aBzqmE-21" style="edgeStyle=orthogonalEdgeStyle;rounded=0;orthogonalLoop=1;jettySize=auto;html=1;exitX=1;exitY=1;exitDx=0;exitDy=0;entryX=0.159;entryY=0.036;entryDx=0;entryDy=0;entryPerimeter=0;" edge="1" parent="1" source="LiXAKCymoHaXU6aBzqmE-5" target="LiXAKCymoHaXU6aBzqmE-3">
          <mxGeometry relative="1" as="geometry" />
        </mxCell>
        <mxCell id="LiXAKCymoHaXU6aBzqmE-22" style="edgeStyle=orthogonalEdgeStyle;rounded=0;orthogonalLoop=1;jettySize=auto;html=1;exitX=0.5;exitY=1;exitDx=0;exitDy=0;entryX=0.607;entryY=-0.074;entryDx=0;entryDy=0;entryPerimeter=0;" edge="1" parent="1" source="LiXAKCymoHaXU6aBzqmE-16" target="LiXAKCymoHaXU6aBzqmE-3">
          <mxGeometry relative="1" as="geometry" />
        </mxCell>
        <mxCell id="LiXAKCymoHaXU6aBzqmE-26" value="" style="edgeStyle=entityRelationEdgeStyle;fontSize=12;html=1;endArrow=ERoneToMany;rounded=0;entryX=0;entryY=0.5;entryDx=0;entryDy=0;exitX=1;exitY=0.5;exitDx=0;exitDy=0;" edge="1" parent="1" source="LiXAKCymoHaXU6aBzqmE-2" target="LiXAKCymoHaXU6aBzqmE-10">
          <mxGeometry width="100" height="100" relative="1" as="geometry">
            <mxPoint x="390" y="340" as="sourcePoint" />
            <mxPoint x="490" y="240" as="targetPoint" />
            <Array as="points">
              <mxPoint x="250" y="320" />
              <mxPoint x="430" y="300" />
              <mxPoint x="260" y="310" />
            </Array>
          </mxGeometry>
        </mxCell>
        <mxCell id="LiXAKCymoHaXU6aBzqmE-30" value="" style="edgeStyle=entityRelationEdgeStyle;fontSize=12;html=1;endArrow=ERmandOne;startArrow=ERmandOne;rounded=0;exitX=1;exitY=0.5;exitDx=0;exitDy=0;entryX=0;entryY=0.5;entryDx=0;entryDy=0;" edge="1" parent="1" source="LiXAKCymoHaXU6aBzqmE-3" target="LiXAKCymoHaXU6aBzqmE-2">
          <mxGeometry width="100" height="100" relative="1" as="geometry">
            <mxPoint x="390" y="340" as="sourcePoint" />
            <mxPoint x="490" y="240" as="targetPoint" />
          </mxGeometry>
        </mxCell>
        <mxCell id="LiXAKCymoHaXU6aBzqmE-31" value="Van" style="text;html=1;align=center;verticalAlign=middle;whiteSpace=wrap;rounded=0;" vertex="1" parent="1">
          <mxGeometry x="350" y="315" width="60" height="30" as="geometry" />
        </mxCell>
        <mxCell id="LiXAKCymoHaXU6aBzqmE-32" value="&lt;strong&gt;VanID&lt;/strong&gt;" style="text;html=1;align=center;verticalAlign=middle;whiteSpace=wrap;rounded=0;" vertex="1" parent="1">
          <mxGeometry x="357.5" y="240" width="60" height="30" as="geometry" />
        </mxCell>
        <mxCell id="LiXAKCymoHaXU6aBzqmE-35" style="edgeStyle=orthogonalEdgeStyle;rounded=0;orthogonalLoop=1;jettySize=auto;html=1;exitX=0;exitY=0;exitDx=0;exitDy=0;entryX=0.5;entryY=1;entryDx=0;entryDy=0;" edge="1" parent="1" source="LiXAKCymoHaXU6aBzqmE-34" target="LiXAKCymoHaXU6aBzqmE-2">
          <mxGeometry relative="1" as="geometry" />
        </mxCell>
        <mxCell id="LiXAKCymoHaXU6aBzqmE-34" value="&lt;strong&gt;Model&lt;/strong&gt;" style="text;html=1;align=center;verticalAlign=middle;whiteSpace=wrap;rounded=0;" vertex="1" parent="1">
          <mxGeometry x="395.5" y="410" width="60" height="30" as="geometry" />
        </mxCell>
        <mxCell id="LiXAKCymoHaXU6aBzqmE-36" style="edgeStyle=orthogonalEdgeStyle;rounded=0;orthogonalLoop=1;jettySize=auto;html=1;exitX=0.5;exitY=1;exitDx=0;exitDy=0;entryX=0.562;entryY=0.009;entryDx=0;entryDy=0;entryPerimeter=0;" edge="1" parent="1" source="LiXAKCymoHaXU6aBzqmE-32" target="LiXAKCymoHaXU6aBzqmE-2">
          <mxGeometry relative="1" as="geometry" />
        </mxCell>
      </root>
    </mxGraphModel>
  </diagram>
</mxfile>
